<svg width="153" height="165" viewBox="0 0 153 165" fill="none" xmlns="http://www.w3.org/2000/svg">
<path d="M24.4203 109.394C19.3824 115.02 14.4762 120.793 13.2252 129.647C11.9742 138.501 13.3798 150.375 22.1815 157.776C30.9832 165.177 44.2093 166.266 55.208 159.464C66.2067 152.662 62.485 136.961 74.7999 136.961C87.1149 136.961 84.8758 145.399 89.9137 152.713C94.9517 160.027 101.756 164.414 110.065 164.527C118.374 164.641 122.802 163.12 129.098 155.526C135.394 147.932 138.613 135.273 135.815 126.834C132.723 117.513 109.166 99.0673 105.587 92.5166C102.009 85.9658 104.547 81.1742 98.31 74.5141C89.3537 64.9503 61.9249 66.638 54.6479 71.1386C47.9949 75.2533 49.8124 82.357 45.1318 89.1413C40.4512 95.9256 29.4582 103.768 24.4203 109.394Z" fill="#C1B9C0"/>
<path d="M107.729 74.9577C107.527 84.3692 114.004 95.2826 118.771 96.4203C123.538 97.558 130.05 93.8933 135.831 89.6755C141.612 85.4578 146.792 78.3319 148 74.1953C149.209 70.0588 148.144 59.434 143.437 52.6218C138.73 45.8097 130.397 33.9672 123.437 37.149C118.501 39.4055 119.996 46.4539 117.334 51.1656C114.672 55.8772 107.932 65.5463 107.729 74.9577Z" fill="#C1B9C0"/>
<path d="M97.3313 60.6755C86.9222 67.5565 84.8313 56.2193 81.3313 49.4208C77.8313 42.6222 75.8851 35.2618 76.5109 25.3707C77.1366 15.4796 82.2719 5.96329 92.3316 5.53316C102.391 5.10303 109.893 16.6637 110.832 20.0332C113.05 27.9976 113.561 40.2781 111.331 44.6755C109.102 49.073 107.74 53.7946 97.3313 60.6755Z" fill="#C1B9C0"/>
<path d="M29.7937 28.2292C26.9845 37.559 28.8311 45.3776 32.8311 51.533C36.8311 57.6883 53.3999 68.5754 58.3996 66.0321C63.3994 63.4889 67.5538 53.9722 69.4967 48.3776C71.4396 42.783 64.3311 11.033 56.8311 7.53295C49.3311 4.03295 47.3311 5.53295 42.8311 8.03295C38.3311 10.533 32.603 18.8995 29.7937 28.2292Z" fill="#C1B9C0"/>
<path d="M45.7415 76.0415C44.0467 86.1659 38.9915 93.8555 29.9915 96.3555C20.9915 98.8555 10.8312 87.6755 10.8312 87.6755C10.8312 87.6755 3.99772 79.6207 2.66681 73.3163C1.15938 66.1758 1.56692 61.0761 5.34861 54.8284C8.14331 50.2113 10.5427 47.4431 15.6135 45.5472C21.8086 43.2308 47.4362 65.9171 45.7415 76.0415Z" fill="#C1B9C0"/>
</svg>
